PathFileType	4	(X/Y/Z)	Walk10.trc
DataRate	CameraRate	NumFrames	NumMarkers	Units	OrigDataRate	OrigDataStartFrame	OrigNumFrames
200.000000	200.000000	7	61	mm	200.000000	461	495
Frame#	Times		LFHD		RFHD		CLAV		LASI		RASI		RACR1		RUA1		RFA1		RWRR		RCAR		LACR1		LUA1		LWRU		RTH3		LTH1		LTH3		LTH2		LTH4		LTB1		LTB2		LTB4		LLFC		RTB1		LCAR		LTB3		LFA1		STRN		RTB4		RWRU		RTB3		RTH2		LBHD		RMT5		RMFC		RLFC		RToe		RMT1		RTH4		RMMAL		RTB2		RTH1		LElbow		RElbow		LWRR		LMFC		T10		LPSI		RLMAL		RBHD		RBack		RCAL		RPSI		LToe		RElbowM		C7		LMMAL		LElbowM		LLMAL		LCAL		LMT5		LMT1
			X1	Y1	Z1	X2	Y2	Z2	X3	Y3	Z3	X4	Y4	Z4	X5	Y5	Z5	X6	Y6	Z6	X7	Y7	Z7	X8	Y8	Z8	X9	Y9	Z9	X10	Y10	Z10	X11	Y11	Z11	X12	Y12	Z12	X13	Y13	Z13	X14	Y14	Z14	X15	Y15	Z15	X16	Y16	Z16	X17	Y17	Z17	X18	Y18	Z18	X19	Y19	Z19	X20	Y20	Z20	X21	Y21	Z21	X22	Y22	Z22	X23	Y23	Z23	X24	Y24	Z24	X25	Y25	Z25	X26	Y26	Z26	X27	Y27	Z27	X28	Y28	Z28	X29	Y29	Z29	X30	Y30	Z30	X31	Y31	Z31	X32	Y32	Z32	X33	Y33	Z33	X34	Y34	Z34	X35	Y35	Z35	X36	Y36	Z36	X37	Y37	Z37	X38	Y38	Z38	X39	Y39	Z39	X40	Y40	Z40	X41	Y41	Z41	X42	Y42	Z42	X43	Y43	Z43	X44	Y44	Z44	X45	Y45	Z45	X46	Y46	Z46	X47	Y47	Z47	X48	Y48	Z48	X49	Y49	Z49	X50	Y50	Z50	X51	Y51	Z51	X52	Y52	Z52	X53	Y53	Z53	X54	Y54	Z54	X55	Y55	Z55	X56	Y56	Z56	X57	Y57	Z57	X58	Y58	Z58	X59	Y59	Z59	X60	Y60	Z60	X61	Y61	Z61

461	2.305	1272.4	1607.2	-10.547	1265.4	1610.1	88.972	1255.9	1326.7	44.049	1237.4	915.13	-65.16	1239.7	928.56	181.84	1176.3	1355.4	208.58	1165.1	1187.4	266.22	1171.8	905.04	347.58	1230.2	787.42	339.98	1204.6	729.63	394.47	1191.7	1368.3	-112.98	1209	1198.3	-182	1421.1	870.45	-228.1	1306	611.88	219.61	1178.2	744.24	-124.23	1158.5	577.84	-87.102	1223	661.11	-84.775	1166.8	660.1	-107.16	1158.4	337.96	11.909	1124.4	251.41	-39.366	1135.2	254.81	20.413	1137.3	437.42	-60.158	1343.5	368.48	166.45	1433.7	802.47	-265.4	1117.9	173.11	30.836	1316.6	935.74	-243.98	1282.5	1193	53.172	1295.8	295.53	163.17	1165	784.75	361.64	1248.8	223.81	157.26	1317.2	717.06	220.88	1141	1523.5	-39.542	1221.1	69.159	187.42	1353	473.45	64.53	1363.4	480.13	192.67	1304.8	51.21	148.1	1260.5	66.913	110.5	1269.2	686.33	238.08	1171.8	160.91	93.051	1255.2	321.04	201.41	1231.6	762.18	258.73	1223.9	1043.4	-218.16	1139.8	1025.6	303.46	1365.5	828.08	-231.49	1107	437.5	70.195	1072.4	1210.8	42.733	1063.3	972.61	8.9438	1147.1	153.65	172.77	1133	1534.7	104.95	1066.1	1297.5	108.07	1091.6	147.75	127.23	1067.4	966.5	109.58	1244.7	26.165	37.597	1132	1015.1	226.56	1142.1	1423.9	36.673	1063.7	89.007	72.656	1215.1	1015.2	-146.59	1051.2	67.217	-7.2961	993.27	42.417	34.196	1155.1	24.156	-18.094	1186.9	30.486	65.446
462	2.31	1279.6	1606.8	-10.632	1272.5	1609.6	88.881	1262.8	1326.3	43.75	1244	914.54	-65.459	1246.9	928.29	181.5	1183	1354.9	208.23	1171	1186.9	265.82	1176.3	904.55	347.12	1234.3	786.72	339.96	1208.2	728.93	394.16	1198.9	1368	-113.33	1217.2	1198.2	-182.3	1434.4	874.4	-225.76	1315.1	612.77	219.44	1183.5	743.92	-124.28	1162	577.77	-87.223	1227.3	660.31	-84.624	1171.2	659.88	-107.19	1159.7	337.93	11.743	1125.2	251.54	-39.49	1136.2	254.92	20.304	1139.1	437.53	-60.377	1356.9	369.52	166.32	1449	806.54	-262.59	1118.5	173.29	30.757	1328.8	937.32	-243.13	1289.4	1192.5	52.79	1311.7	295.05	162.96	1169	784.26	361.18	1267.1	221.84	156.97	1325.5	718.05	221.28	1148.2	1523.2	-39.865	1244.6	66.494	187.08	1363.4	475.07	64.547	1373.8	481.63	192.38	1328.8	51.393	147.75	1284.1	65.605	110.2	1277.5	686.8	238.06	1192.3	156.46	92.727	1270.4	319.21	201.31	1239.4	762.29	258.93	1233.5	1043.3	-218.42	1145.1	1025.2	302.69	1379.7	830.75	-229.82	1108.7	437.83	70.053	1079.4	1210.5	42.275	1070.1	972.31	8.9996	1167.8	148.32	172.44	1140	1534.3	104.73	1073	1297.1	107.49	1112.5	140.66	126.79	1074.4	966.22	109.62	1244.8	26.103	37.596	1137.8	1014.7	226.06	1149.2	1423.6	36.289	1063.9	89.435	72.731	1224.5	1015	-146.95	1051.4	67.672	-7.2276	993.38	43.075	34.291	1155.1	24.158	-18.003	1186.9	30.434	65.479
463	2.315	1286.8	1606.4	-10.726	1279.6	1609.1	88.782	1269.9	1325.9	43.451	1250.6	913.91	-65.772	1254.2	927.92	181.15	1189.8	1354.4	207.89	1176.9	1186.4	265.41	1180.9	903.99	346.67	1238.6	785.99	339.94	1211.9	728.19	393.85	1206.1	1367.6	-113.67	1225.3	1197.9	-182.6	1447.5	878.3	-223.36	1324.1	613.52	219.26	1188.8	743.57	-124.37	1165.6	577.7	-87.351	1231.6	659.5	-84.521	1175.7	659.64	-107.25	1161.1	337.9	11.575	1126.2	251.68	-39.627	1137.2	255.04	20.181	1140.8	437.64	-60.61	1370.1	370.47	166.16	1464.2	810.63	-259.72	1119.2	173.48	30.669	1340.8	938.88	-242.22	1296.4	1192	52.405	1327.5	294.54	162.73	1173.1	783.71	360.74	1285.5	219.88	156.65	1333.6	718.87	221.66	1155.4	1522.8	-40.186	1268.2	63.975	186.69	1373.5	476.51	64.581	1383.9	482.94	192.09	1352.9	51.772	147.32	1307.8	64.49	109.84	1285.8	687.15	238.05	1213	152.06	92.414	1285.7	317.26	201.22	1247.1	762.27	259.14	1243	1043.2	-218.67	1150.5	1024.7	301.96	1393.9	833.45	-228.1	1110.4	438.17	69.894	1086.4	1210.1	41.852	1076.9	971.95	9.1076	1188.7	143.02	172.14	1147	1533.8	104.49	1080	1296.7	106.93	1133.8	133.59	126.39	1081.5	965.86	109.71	1244.9	26.04	37.591	1143.6	1014.2	225.58	1156.3	1423.2	35.914	1064.1	89.886	72.783	1233.9	1014.7	-147.33	1051.5	68.15	-7.1743	993.48	43.769	34.374	1155.1	24.162	-17.917	1186.9	30.382	65.509
464	2.32	1294	1605.9	-10.828	1286.7	1608.5	88.674	1276.9	1325.3	43.153	1257.2	913.24	-66.097	1261.4	927.45	180.8	1196.6	1353.7	207.56	1182.8	1185.8	265.01	1185.5	903.38	346.24	1242.9	785.21	339.91	1215.7	727.42	393.54	1213.4	1367.1	-114.02	1233.4	1197.5	-182.9	1460.5	882.17	-220.91	1333	614.11	219.08	1194	743.2	-124.49	1169.2	577.61	-87.486	1235.9	658.67	-84.469	1180.2	659.38	-107.35	1162.6	337.87	11.409	1127.2	251.82	-39.774	1138.3	255.16	20.041	1142.7	437.76	-60.857	1383.2	371.34	165.96	1479.3	814.75	-256.78	1119.9	173.69	30.574	1352.8	940.4	-241.27	1303.4	1191.4	52.02	1343.3	294.01	162.47	1177.3	783.11	360.32	1303.9	217.97	156.31	1341.7	719.53	222	1162.6	1522.3	-40.504	1292.1	61.633	186.27	1383.2	477.74	64.627	1393.8	484.06	191.8	1377.1	52.373	146.81	1331.6	63.595	109.43	1294	687.36	238.04	1233.9	147.77	92.105	1300.9	315.2	201.14	1254.8	762.15	259.35	1252.6	1043	-218.9	1155.9	1024.2	301.27	1407.9	836.16	-226.35	1112.3	438.5	69.722	1093.4	1209.7	41.468	1083.7	971.51	9.2699	1209.9	137.79	171.86	1154.1	1533.2	104.2	1087	1296.2	106.4	1155.4	126.6	126.03	1088.6	965.42	109.83	1245	25.975	37.584	1149.4	1013.6	225.11	1163.5	1422.7	35.549	1064.3	90.361	72.807	1243.3	1014.3	-147.71	1051.7	68.653	-7.1377	993.59	44.497	34.443	1155.1	24.167	-17.836	1186.9	30.332	65.536
465	2.325	1301.2	1605.3	-10.936	1293.8	1607.9	88.559	1284	1324.7	42.857	1263.8	912.54	-66.432	1268.8	926.9	180.45	1203.6	1353	207.24	1188.8	1185.2	264.61	1190.2	902.73	345.83	1247.2	784.4	339.86	1219.6	726.6	393.23	1220.6	1366.6	-114.37	1241.4	1197.1	-183.18	1473.3	885.99	-218.39	1341.7	614.55	218.9	1199.3	742.81	-124.64	1172.8	577.51	-87.626	1240.2	657.84	-84.471	1184.6	659.1	-107.48	1164.1	337.84	11.246	1128.2	251.98	-39.93	1139.4	255.27	19.879	1144.7	437.87	-61.114	1396.1	372.12	165.73	1494.1	818.88	-253.78	1120.6	173.9	30.473	1364.6	941.9	-240.27	1310.4	1190.6	51.635	1359	293.48	162.17	1181.5	782.47	359.91	1322.3	216.13	155.94	1349.8	720.02	222.32	1169.9	1521.8	-40.816	1316	59.503	185.8	1392.6	478.75	64.68	1403.5	484.98	191.51	1401.2	53.221	146.22	1355.4	62.947	108.95	1302.1	687.44	238.03	1254.8	143.59	91.798	1316.2	313.05	201.07	1262.4	761.91	259.57	1262.1	1042.7	-219.12	1161.3	1023.6	300.63	1421.7	838.88	-224.55	1114.3	438.83	69.539	1100.4	1209.3	41.125	1090.4	971.02	9.4881	1231.3	132.66	171.59	1161.2	1532.6	103.89	1094.1	1295.6	105.9	1177.2	119.71	125.7	1095.8	964.91	110.01	1245.1	25.907	37.578	1155.2	1013	224.64	1170.7	1422.2	35.195	1064.6	90.859	72.802	1252.6	1013.9	-148.1	1051.9	69.18	-7.1187	993.7	45.263	34.496	1155.1	24.176	-17.763	1187	30.284	65.558
466	2.33	1308.3	1604.7	-11.05	1300.9	1607.2	88.438	1291.1	1323.9	42.562	1270.4	911.8	-66.774	1276.1	926.26	180.08	1210.6	1352.3	206.93	1194.8	1184.5	264.21	1194.9	902.03	345.43	1251.7	783.56	339.81	1223.6	725.75	392.91	1228	1366	-114.71	1249.4	1196.5	-183.45	1486	889.76	-215.83	1350.3	614.83	218.7	1204.4	742.41	-124.81	1176.5	577.39	-87.771	1244.5	657.01	-84.532	1189.1	658.82	-107.65	1165.7	337.8	11.088	1129.3	252.14	-40.094	1140.6	255.38	19.692	1146.8	437.99	-61.379	1408.8	372.84	165.46	1508.8	823.01	-250.73	1121.4	174.13	30.364	1376.4	943.38	-239.23	1317.4	1189.8	51.252	1374.7	292.97	161.83	1185.8	781.79	359.53	1340.8	214.37	155.54	1357.7	720.33	222.6	1177.2	1521.1	-41.122	1340.1	57.617	185.29	1401.7	479.54	64.738	1413	485.71	191.22	1425.4	54.344	145.56	1379.3	62.572	108.42	1310.2	687.39	238.03	1276	139.57	91.487	1331.4	310.84	201	1270.1	761.57	259.81	1271.7	1042.3	-219.31	1166.8	1023	300.03	1435.4	841.6	-222.71	1116.4	439.16	69.347	1107.5	1208.8	40.823	1097.2	970.47	9.7631	1252.9	127.66	171.33	1168.3	1531.8	103.54	1101.2	1295	105.44	1199.3	112.96	125.4	1102.9	964.33	110.23	1245.1	25.834	37.573	1161	1012.2	224.17	1178	1421.7	34.852	1064.9	91.379	72.77	1261.9	1013.3	-148.49	1052	69.733	-7.1177	993.81	46.066	34.533	1155.1	24.19	-17.697	1187	30.24	65.576
467	2.335	1315.5	1604	-11.168	1308	1606.5	88.312	1298.3	1323.2	42.268	1277	911.04	-67.12	1283.5	925.54	179.72	1217.6	1351.5	206.63	1200.8	1183.9	263.81	1199.8	901.31	345.05	1256.2	782.7	339.74	1227.7	724.87	392.6	1235.3	1365.3	-115.05	1257.4	1195.9	-183.7	1498.4	893.47	-213.22	1358.7	614.94	218.5	1209.6	741.99	-125.02	1180.1	577.27	-87.921	1248.8	656.18	-84.652	1193.6	658.53	-107.85	1167.4	337.76	10.935	1130.5	252.31	-40.266	1141.8	255.47	19.474	1149	438.1	-61.651	1421.4	373.5	165.17	1523.2	827.14	-247.65	1122.1	174.36	30.249	1388.1	944.83	-238.15	1324.5	1188.9	50.871	1390.3	292.48	161.47	1190.2	781.09	359.17	1359.3	212.73	155.12	1365.6	720.48	222.86	1184.5	1520.4	-41.42	1364.3	56.007	184.73	1410.5	480.08	64.796	1422.2	486.25	190.93	1449.5	55.766	144.83	1403.2	62.497	107.84	1318.2	687.2	238.04	1297.2	135.74	91.168	1346.6	308.59	200.94	1277.7	761.11	260.05	1281.3	1041.9	-219.48	1172.3	1022.3	299.47	1448.9	844.32	-220.85	1118.6	439.49	69.151	1114.6	1208.2	40.564	1104	969.87	10.095	1274.7	122.83	171.07	1175.5	1531	103.15	1108.4	1294.4	105	1221.7	106.38	125.13	1110.1	963.69	110.5	1245.1	25.759	37.571	1166.7	1011.5	223.7	1185.3	1421	34.521	1065.2	91.922	72.71	1271.2	1012.7	-148.88	1052.2	70.312	-7.1348	993.93	46.91	34.553	1155.1	24.209	-17.641	1187	30.2	65.588
